<svg width="145" height="14" viewBox="0 0 145 14" fill="none" xmlns="http://www.w3.org/2000/svg">
<path d="M4.55802 2.092H0.382016V0.184H11.092V2.092H6.89802V13H4.55802V2.092ZM12.6965 0.184H21.2645V2.02H14.9645V5.566H20.8865V7.402H14.9645V11.164H21.2645V13H12.6965V0.184ZM29.1805 13.162C27.9205 13.162 26.8165 12.892 25.8685 12.352C24.9325 11.812 24.2125 11.05 23.7085 10.066C23.2045 9.07 22.9525 7.906 22.9525 6.574C22.9525 5.254 23.2045 4.102 23.7085 3.118C24.2125 2.122 24.9325 1.36 25.8685 0.831999C26.8165 0.291999 27.9205 0.0219997 29.1805 0.0219997C30.0445 0.0219997 30.8545 0.16 31.6105 0.436C32.3785 0.699999 33.0145 1.072 33.5185 1.552L32.7625 3.244C32.1865 2.776 31.6105 2.44 31.0345 2.236C30.4705 2.02 29.8645 1.912 29.2165 1.912C27.9805 1.912 27.0205 2.314 26.3365 3.118C25.6645 3.922 25.3285 5.074 25.3285 6.574C25.3285 8.086 25.6645 9.25 26.3365 10.066C27.0085 10.87 27.9685 11.272 29.2165 11.272C29.8645 11.272 30.4705 11.17 31.0345 10.966C31.6105 10.75 32.1865 10.408 32.7625 9.94L33.5185 11.632C33.0145 12.112 32.3785 12.49 31.6105 12.766C30.8545 13.03 30.0445 13.162 29.1805 13.162ZM46.8487 0.184V13H44.5447V7.438H37.9747V13H35.6887V0.184H37.9747V5.548H44.5447V0.184H46.8487ZM60.4282 0.184V13H58.7002L51.7882 4.018V13H49.6282V0.184H51.3562L58.2502 9.148V0.184H60.4282ZM68.9041 13.162C67.6681 13.162 66.5881 12.898 65.6641 12.37C64.7521 11.83 64.0441 11.068 63.5401 10.084C63.0481 9.088 62.8021 7.918 62.8021 6.574C62.8021 5.242 63.0481 4.084 63.5401 3.1C64.0321 2.104 64.7341 1.342 65.6461 0.813999C66.5701 0.286 67.6561 0.0219997 68.9041 0.0219997C70.1521 0.0219997 71.2321 0.286 72.1441 0.813999C73.0681 1.342 73.7701 2.104 74.2501 3.1C74.7421 4.084 74.9881 5.242 74.9881 6.574C74.9881 7.918 74.7421 9.088 74.2501 10.084C73.7581 11.068 73.0561 11.83 72.1441 12.37C71.2321 12.898 70.1521 13.162 68.9041 13.162ZM68.9041 11.308C70.0921 11.308 71.0161 10.9 71.6761 10.084C72.3361 9.268 72.6661 8.098 72.6661 6.574C72.6661 5.062 72.3361 3.904 71.6761 3.1C71.0161 2.284 70.0921 1.876 68.9041 1.876C67.7161 1.876 66.7921 2.278 66.1321 3.082C65.4721 3.886 65.1421 5.05 65.1421 6.574C65.1421 8.098 65.4721 9.268 66.1321 10.084C66.7921 10.9 67.7161 11.308 68.9041 11.308Z" fill="#F64C72"/>
<path d="M77.3665 0.184H85.7365V2.038H79.6705V5.548H85.3765V7.42H79.6705V13H77.3665V0.184ZM87.6673 0.184H96.2353V2.02H89.9353V5.566H95.8573V7.402H89.9353V11.164H96.2353V13H87.6673V0.184ZM110.126 0.184L104.42 13H102.53L96.8243 0.184H99.2363L103.502 10.084L107.768 0.184H110.126ZM111.345 0.184H119.913V2.02H113.613V5.566H119.535V7.402H113.613V11.164H119.913V13H111.345V0.184ZM132.598 13H130.15L128.512 8.734C128.368 8.338 128.146 8.062 127.846 7.906C127.546 7.75 127.156 7.672 126.676 7.672H124.354V13H122.05V0.184H127.54C128.992 0.184 130.096 0.502 130.852 1.138C131.608 1.774 131.986 2.686 131.986 3.874C131.986 4.726 131.758 5.452 131.302 6.052C130.858 6.64 130.222 7.06 129.394 7.312C130.15 7.468 130.696 7.996 131.032 8.896L132.598 13ZM127.216 5.872C128.092 5.872 128.74 5.71 129.16 5.386C129.58 5.062 129.79 4.57 129.79 3.91C129.79 3.262 129.58 2.782 129.16 2.47C128.752 2.146 128.104 1.984 127.216 1.984H124.318V5.872H127.216ZM138.974 13.162C137.99 13.162 137.066 13.03 136.202 12.766C135.35 12.502 134.624 12.124 134.024 11.632L134.816 9.94C135.44 10.408 136.088 10.756 136.76 10.984C137.444 11.2 138.188 11.308 138.992 11.308C139.88 11.308 140.564 11.152 141.044 10.84C141.536 10.528 141.782 10.09 141.782 9.526C141.782 9.046 141.554 8.68 141.098 8.428C140.654 8.164 139.916 7.918 138.884 7.69C137.276 7.342 136.106 6.892 135.374 6.34C134.642 5.788 134.276 4.984 134.276 3.928C134.276 3.172 134.48 2.5 134.888 1.912C135.296 1.324 135.872 0.862 136.616 0.526C137.372 0.19 138.242 0.0219997 139.226 0.0219997C140.126 0.0219997 140.978 0.16 141.782 0.436C142.598 0.699999 143.264 1.072 143.78 1.552L143.006 3.244C141.866 2.332 140.606 1.876 139.226 1.876C138.398 1.876 137.744 2.05 137.264 2.398C136.784 2.734 136.544 3.196 136.544 3.784C136.544 4.288 136.754 4.672 137.174 4.936C137.606 5.2 138.338 5.446 139.37 5.674C140.438 5.926 141.308 6.202 141.98 6.502C142.652 6.79 143.168 7.168 143.528 7.636C143.888 8.092 144.068 8.668 144.068 9.364C144.068 10.132 143.864 10.804 143.456 11.38C143.048 11.944 142.46 12.382 141.692 12.694C140.924 13.006 140.018 13.162 138.974 13.162Z" fill="#553D67"/>
</svg>
