<svg width="120" height="24" viewBox="0 0 120 24" fill="none" xmlns="http://www.w3.org/2000/svg">
<g clip-path="url(#clip0_1_321)">
<path d="M12.0001 17.5198L16.1501 20.0298C16.9101 20.4898 17.8401 19.8098 17.6401 18.9498L16.5401 14.2298L20.2101 11.0498C20.8801 10.4698 20.5201 9.36977 19.6401 9.29977L14.8101 8.88977L12.9201 4.42977C12.5801 3.61977 11.4201 3.61977 11.0801 4.42977L9.19007 8.87977L4.36007 9.28977C3.48007 9.35977 3.12007 10.4598 3.79007 11.0398L7.46007 14.2198L6.36007 18.9398C6.16007 19.7998 7.09007 20.4798 7.85007 20.0198L12.0001 17.5198Z" fill="#FDC500"/>
<path d="M84.0001 17.5198L88.1501 20.0298C88.9101 20.4898 89.8401 19.8098 89.6401 18.9498L88.5401 14.2298L92.2101 11.0498C92.8801 10.4698 92.5201 9.36977 91.6401 9.29977L86.8101 8.88977L84.9201 4.42977C84.5801 3.61977 83.4201 3.61977 83.0801 4.42977L81.1901 8.87977L76.3601 9.28977C75.4801 9.35977 75.1201 10.4598 75.7901 11.0398L79.4601 14.2198L78.3601 18.9398C78.1601 19.7998 79.0901 20.4798 79.8501 20.0198L84.0001 17.5198Z" fill="#FDC500"/>
<path d="M60.0001 17.5198L64.1501 20.0298C64.9101 20.4898 65.8401 19.8098 65.6401 18.9498L64.5401 14.2298L68.2101 11.0498C68.8801 10.4698 68.5201 9.36977 67.6401 9.29977L62.8101 8.88977L60.9201 4.42977C60.5801 3.61977 59.4201 3.61977 59.0801 4.42977L57.1901 8.87977L52.3601 9.28977C51.4801 9.35977 51.1201 10.4598 51.7901 11.0398L55.4601 14.2198L54.3601 18.9398C54.1601 19.7998 55.0901 20.4798 55.8501 20.0198L60.0001 17.5198Z" fill="#FDC500"/>
<path d="M36.0001 17.5198L40.1501 20.0298C40.9101 20.4898 41.8401 19.8098 41.6401 18.9498L40.5401 14.2298L44.2101 11.0498C44.8801 10.4698 44.5201 9.36977 43.6401 9.29977L38.8101 8.88977L36.9201 4.42977C36.5801 3.61977 35.4201 3.61977 35.0801 4.42977L33.1901 8.87977L28.3601 9.28977C27.4801 9.35977 27.1201 10.4598 27.7901 11.0398L31.4601 14.2198L30.3601 18.9398C30.1601 19.7998 31.0901 20.4798 31.8501 20.0198L36.0001 17.5198Z" fill="#FDC500"/>
<path d="M108 17.5198L112.15 20.0298C112.91 20.4898 113.84 19.8098 113.64 18.9498L112.54 14.2298L116.21 11.0498C116.88 10.4698 116.52 9.36977 115.64 9.29977L110.81 8.88977L108.92 4.42977C108.58 3.61977 107.42 3.61977 107.08 4.42977L105.19 8.87977L100.36 9.28977C99.4801 9.35977 99.1201 10.4598 99.7901 11.0398L103.46 14.2198L102.36 18.9398C102.16 19.7998 103.09 20.4798 103.85 20.0198L108 17.5198Z" fill="#FDC500"/>
</g>
<defs>
<clipPath id="clip0_1_321">
<rect width="120" height="24" fill="white"/>
</clipPath>
</defs>
</svg>
