<svg width="864" height="119" viewBox="0 0 864 119" fill="none" xmlns="http://www.w3.org/2000/svg">
<circle cx="432.5" cy="24.5" r="24" stroke="#25313C"/>
<path d="M417 22.6L426.582 34L448 15" stroke="#F64C72" stroke-width="3"/>
<circle cx="763.5" cy="24.5" r="24" stroke="#553D67"/>
<path d="M748 22.6L757.582 34L779 15" stroke="#F64C72" stroke-width="3"/>
<circle cx="101.5" cy="24.5" r="24" stroke="#25313C"/>
<path d="M86 22.6L95.5818 34L117 15" stroke="#F64C72" stroke-width="3"/>
<line y1="22.5" x2="77" y2="22.5" stroke="#553D67"/>
<line x1="125" y1="22.5" x2="408" y2="22.5" stroke="#553D67"/>
<line x1="456" y1="22.5" x2="739" y2="22.5" stroke="#553D67"/>
<line x1="787" y1="22.5" x2="864" y2="22.5" stroke="#553D67"/>
<path d="M93.3564 67.1504L89.9199 80H88.417L85.8682 71.3516C85.792 71.1055 85.7188 70.8594 85.6484 70.6133C85.584 70.3613 85.5225 70.124 85.4639 69.9014C85.4053 69.6729 85.3555 69.4736 85.3145 69.3037C85.2793 69.1279 85.2529 68.9961 85.2354 68.9082C85.2236 68.9961 85.2002 69.125 85.165 69.2949C85.1357 69.4648 85.0947 69.6611 85.042 69.8838C84.9951 70.1064 84.9365 70.3438 84.8662 70.5957C84.8018 70.8477 84.7314 71.1025 84.6553 71.3604L82.1768 80H80.6738L77.2637 67.1504H78.8193L80.8848 75.21C80.9551 75.4795 81.0195 75.7461 81.0781 76.0098C81.1426 76.2676 81.1982 76.5195 81.2451 76.7656C81.2979 77.0117 81.3447 77.252 81.3857 77.4863C81.4268 77.7207 81.4648 77.9492 81.5 78.1719C81.5293 77.9434 81.5674 77.7061 81.6143 77.46C81.6611 77.208 81.7109 76.9531 81.7637 76.6953C81.8223 76.4375 81.8838 76.1768 81.9482 75.9131C82.0186 75.6494 82.0918 75.3857 82.168 75.1221L84.4795 67.1504H86.0176L88.4258 75.1836C88.5078 75.459 88.584 75.7314 88.6543 76.001C88.7246 76.2705 88.7861 76.5342 88.8389 76.792C88.8975 77.0439 88.9473 77.2871 88.9883 77.5215C89.0352 77.75 89.0762 77.9668 89.1113 78.1719C89.1523 77.8848 89.2021 77.583 89.2607 77.2666C89.3193 76.9502 89.3867 76.6191 89.4629 76.2734C89.5449 75.9277 89.6328 75.5703 89.7266 75.2012L91.792 67.1504H93.3564ZM102.541 80H95.3867V67.1504H102.541V68.4688H96.8809V72.626H102.216V73.9268H96.8809V78.6816H102.541V80ZM118.124 80L116.542 75.9219H111.392L109.818 80H108.307L113.334 67.0977H114.679L119.671 80H118.124ZM116.094 74.5947L114.591 70.543C114.556 70.4375 114.497 70.2646 114.415 70.0244C114.339 69.7842 114.26 69.5352 114.178 69.2773C114.096 69.0195 114.028 68.8115 113.976 68.6533C113.917 68.8936 113.853 69.1338 113.782 69.374C113.718 69.6084 113.653 69.8281 113.589 70.0332C113.524 70.2324 113.469 70.4023 113.422 70.543L111.893 74.5947H116.094ZM124.927 67.1504C125.981 67.1504 126.852 67.2822 127.537 67.5459C128.229 67.8037 128.744 68.1992 129.084 68.7324C129.424 69.2656 129.594 69.9453 129.594 70.7715C129.594 71.4512 129.471 72.0195 129.225 72.4766C128.979 72.9277 128.656 73.2939 128.258 73.5752C127.859 73.8564 127.435 74.0732 126.983 74.2256L130.508 80H128.768L125.621 74.6387H122.949V80H121.455V67.1504H124.927ZM124.839 68.4424H122.949V73.373H124.988C126.037 73.373 126.808 73.1592 127.3 72.7314C127.798 72.3037 128.047 71.6738 128.047 70.8418C128.047 69.9688 127.783 69.3506 127.256 68.9873C126.734 68.624 125.929 68.4424 124.839 68.4424ZM139.719 80H132.564V67.1504H139.719V68.4688H134.059V72.626H139.394V73.9268H134.059V78.6816H139.719V80ZM82.1152 96.1504C83.7734 96.1504 84.9834 96.4756 85.7451 97.126C86.5127 97.7705 86.8965 98.6963 86.8965 99.9033C86.8965 100.448 86.8057 100.967 86.624 101.459C86.4482 101.945 86.1611 102.376 85.7627 102.751C85.3643 103.12 84.8398 103.413 84.1895 103.63C83.5449 103.841 82.7539 103.946 81.8164 103.946H80.252V109H78.7578V96.1504H82.1152ZM81.9746 97.4248H80.252V102.663H81.6494C82.4697 102.663 83.1523 102.575 83.6973 102.399C84.248 102.224 84.6611 101.939 84.9365 101.547C85.2119 101.148 85.3496 100.621 85.3496 99.9648C85.3496 99.1094 85.0771 98.4736 84.5322 98.0576C83.9873 97.6357 83.1348 97.4248 81.9746 97.4248ZM97.6455 109L96.0635 104.922H90.9131L89.3398 109H87.8281L92.8555 96.0977H94.2002L99.1924 109H97.6455ZM95.6152 103.595L94.1123 99.543C94.0771 99.4375 94.0186 99.2646 93.9365 99.0244C93.8604 98.7842 93.7812 98.5352 93.6992 98.2773C93.6172 98.0195 93.5498 97.8115 93.4971 97.6533C93.4385 97.8936 93.374 98.1338 93.3037 98.374C93.2393 98.6084 93.1748 98.8281 93.1104 99.0332C93.0459 99.2324 92.9902 99.4023 92.9434 99.543L91.4141 103.595H95.6152ZM108.228 105.581C108.228 106.343 108.037 106.993 107.656 107.532C107.281 108.065 106.754 108.473 106.074 108.754C105.395 109.035 104.595 109.176 103.675 109.176C103.188 109.176 102.729 109.152 102.295 109.105C101.861 109.059 101.463 108.991 101.1 108.903C100.736 108.815 100.417 108.707 100.142 108.578V107.146C100.581 107.327 101.117 107.497 101.75 107.655C102.383 107.808 103.045 107.884 103.736 107.884C104.381 107.884 104.926 107.799 105.371 107.629C105.816 107.453 106.153 107.204 106.382 106.882C106.616 106.554 106.733 106.161 106.733 105.704C106.733 105.265 106.637 104.898 106.443 104.605C106.25 104.307 105.928 104.037 105.477 103.797C105.031 103.551 104.422 103.29 103.648 103.015C103.104 102.821 102.623 102.61 102.207 102.382C101.791 102.147 101.442 101.884 101.161 101.591C100.88 101.298 100.666 100.958 100.52 100.571C100.379 100.185 100.309 99.7422 100.309 99.2441C100.309 98.5586 100.481 97.9727 100.827 97.4863C101.179 96.9941 101.662 96.6191 102.277 96.3613C102.898 96.0977 103.61 95.9658 104.413 95.9658C105.099 95.9658 105.731 96.0303 106.312 96.1592C106.897 96.2881 107.434 96.4609 107.92 96.6777L107.454 97.9609C106.991 97.7676 106.499 97.6064 105.978 97.4775C105.462 97.3486 104.929 97.2842 104.378 97.2842C103.827 97.2842 103.361 97.3662 102.98 97.5303C102.605 97.6885 102.318 97.9141 102.119 98.207C101.92 98.5 101.82 98.8486 101.82 99.2529C101.82 99.7041 101.914 100.079 102.102 100.378C102.295 100.677 102.6 100.943 103.016 101.178C103.438 101.406 103.994 101.646 104.686 101.898C105.441 102.174 106.083 102.467 106.61 102.777C107.138 103.082 107.539 103.457 107.814 103.902C108.09 104.342 108.228 104.901 108.228 105.581ZM118.106 105.581C118.106 106.343 117.916 106.993 117.535 107.532C117.16 108.065 116.633 108.473 115.953 108.754C115.273 109.035 114.474 109.176 113.554 109.176C113.067 109.176 112.607 109.152 112.174 109.105C111.74 109.059 111.342 108.991 110.979 108.903C110.615 108.815 110.296 108.707 110.021 108.578V107.146C110.46 107.327 110.996 107.497 111.629 107.655C112.262 107.808 112.924 107.884 113.615 107.884C114.26 107.884 114.805 107.799 115.25 107.629C115.695 107.453 116.032 107.204 116.261 106.882C116.495 106.554 116.612 106.161 116.612 105.704C116.612 105.265 116.516 104.898 116.322 104.605C116.129 104.307 115.807 104.037 115.355 103.797C114.91 103.551 114.301 103.29 113.527 103.015C112.982 102.821 112.502 102.61 112.086 102.382C111.67 102.147 111.321 101.884 111.04 101.591C110.759 101.298 110.545 100.958 110.398 100.571C110.258 100.185 110.188 99.7422 110.188 99.2441C110.188 98.5586 110.36 97.9727 110.706 97.4863C111.058 96.9941 111.541 96.6191 112.156 96.3613C112.777 96.0977 113.489 95.9658 114.292 95.9658C114.978 95.9658 115.61 96.0303 116.19 96.1592C116.776 96.2881 117.312 96.4609 117.799 96.6777L117.333 97.9609C116.87 97.7676 116.378 97.6064 115.856 97.4775C115.341 97.3486 114.808 97.2842 114.257 97.2842C113.706 97.2842 113.24 97.3662 112.859 97.5303C112.484 97.6885 112.197 97.9141 111.998 98.207C111.799 98.5 111.699 98.8486 111.699 99.2529C111.699 99.7041 111.793 100.079 111.98 100.378C112.174 100.677 112.479 100.943 112.895 101.178C113.316 101.406 113.873 101.646 114.564 101.898C115.32 102.174 115.962 102.467 116.489 102.777C117.017 103.082 117.418 103.457 117.693 103.902C117.969 104.342 118.106 104.901 118.106 105.581ZM120.734 109V96.1504H122.229V109H120.734ZM136.906 102.558C136.906 103.548 136.78 104.45 136.528 105.265C136.276 106.073 135.901 106.771 135.403 107.356C134.911 107.937 134.299 108.385 133.566 108.701C132.834 109.018 131.984 109.176 131.018 109.176C130.021 109.176 129.151 109.018 128.407 108.701C127.669 108.385 127.054 107.934 126.562 107.348C126.075 106.762 125.709 106.062 125.463 105.247C125.223 104.433 125.103 103.53 125.103 102.54C125.103 101.228 125.319 100.076 125.753 99.0859C126.187 98.0957 126.843 97.3252 127.722 96.7744C128.606 96.2236 129.714 95.9482 131.044 95.9482C132.315 95.9482 133.385 96.2207 134.252 96.7656C135.125 97.3105 135.784 98.0781 136.229 99.0684C136.681 100.053 136.906 101.216 136.906 102.558ZM126.676 102.558C126.676 103.647 126.831 104.591 127.142 105.388C127.452 106.185 127.927 106.8 128.565 107.233C129.21 107.667 130.027 107.884 131.018 107.884C132.014 107.884 132.828 107.667 133.461 107.233C134.1 106.8 134.571 106.185 134.876 105.388C135.181 104.591 135.333 103.647 135.333 102.558C135.333 100.899 134.984 99.6045 134.287 98.6729C133.596 97.7354 132.515 97.2666 131.044 97.2666C130.048 97.2666 129.228 97.4805 128.583 97.9082C127.938 98.3359 127.458 98.9453 127.142 99.7363C126.831 100.521 126.676 101.462 126.676 102.558ZM149.817 109H148.095L141.09 98.207H141.02C141.037 98.4941 141.058 98.8223 141.081 99.1914C141.104 99.5547 141.122 99.9443 141.134 100.36C141.151 100.771 141.16 101.189 141.16 101.617V109H139.771V96.1504H141.485L148.464 106.908H148.525C148.514 106.703 148.499 106.413 148.481 106.038C148.464 105.657 148.446 105.25 148.429 104.816C148.417 104.377 148.411 103.97 148.411 103.595V96.1504H149.817V109ZM161.384 109L159.802 104.922H154.651L153.078 109H151.566L156.594 96.0977H157.938L162.931 109H161.384ZM159.354 103.595L157.851 99.543C157.815 99.4375 157.757 99.2646 157.675 99.0244C157.599 98.7842 157.52 98.5352 157.438 98.2773C157.355 98.0195 157.288 97.8115 157.235 97.6533C157.177 97.8936 157.112 98.1338 157.042 98.374C156.978 98.6084 156.913 98.8281 156.849 99.0332C156.784 99.2324 156.729 99.4023 156.682 99.543L155.152 103.595H159.354ZM168.661 109H167.158V97.4688H163.115V96.1504H172.687V97.4688H168.661V109ZM181.783 109H174.629V96.1504H181.783V97.4688H176.123V101.626H181.458V102.927H176.123V107.682H181.783V109Z" fill="#6D7D8B"/>
<path d="M417.496 80H416.002V73.9443H409.252V80H407.758V67.1504H409.252V72.626H416.002V67.1504H417.496V80ZM432.174 73.5576C432.174 74.5479 432.048 75.4502 431.796 76.2646C431.544 77.0732 431.169 77.7705 430.671 78.3564C430.179 78.9365 429.566 79.3848 428.834 79.7012C428.102 80.0176 427.252 80.1758 426.285 80.1758C425.289 80.1758 424.419 80.0176 423.675 79.7012C422.937 79.3848 422.321 78.9336 421.829 78.3477C421.343 77.7617 420.977 77.0615 420.73 76.2471C420.49 75.4326 420.37 74.5303 420.37 73.54C420.37 72.2275 420.587 71.0762 421.021 70.0859C421.454 69.0957 422.11 68.3252 422.989 67.7744C423.874 67.2236 424.981 66.9482 426.312 66.9482C427.583 66.9482 428.652 67.2207 429.52 67.7656C430.393 68.3105 431.052 69.0781 431.497 70.0684C431.948 71.0527 432.174 72.2158 432.174 73.5576ZM421.943 73.5576C421.943 74.6475 422.099 75.5908 422.409 76.3877C422.72 77.1846 423.194 77.7998 423.833 78.2334C424.478 78.667 425.295 78.8838 426.285 78.8838C427.281 78.8838 428.096 78.667 428.729 78.2334C429.367 77.7998 429.839 77.1846 430.144 76.3877C430.448 75.5908 430.601 74.6475 430.601 73.5576C430.601 71.8994 430.252 70.6045 429.555 69.6729C428.863 68.7354 427.782 68.2666 426.312 68.2666C425.315 68.2666 424.495 68.4805 423.851 68.9082C423.206 69.3359 422.726 69.9453 422.409 70.7363C422.099 71.5215 421.943 72.4619 421.943 73.5576ZM445.085 80H443.362L436.357 69.207H436.287C436.305 69.4941 436.325 69.8223 436.349 70.1914C436.372 70.5547 436.39 70.9443 436.401 71.3604C436.419 71.7705 436.428 72.1895 436.428 72.6172V80H435.039V67.1504H436.753L443.731 77.9082H443.793C443.781 77.7031 443.767 77.4131 443.749 77.0381C443.731 76.6572 443.714 76.25 443.696 75.8164C443.685 75.377 443.679 74.9697 443.679 74.5947V67.1504H445.085V80ZM455.746 80H448.592V67.1504H455.746V68.4688H450.086V72.626H455.421V73.9268H450.086V78.6816H455.746V80ZM465.845 76.5811C465.845 77.3428 465.654 77.9932 465.273 78.5322C464.898 79.0654 464.371 79.4727 463.691 79.7539C463.012 80.0352 462.212 80.1758 461.292 80.1758C460.806 80.1758 460.346 80.1523 459.912 80.1055C459.479 80.0586 459.08 79.9912 458.717 79.9033C458.354 79.8154 458.034 79.707 457.759 79.5781V78.1455C458.198 78.3271 458.734 78.4971 459.367 78.6553C460 78.8076 460.662 78.8838 461.354 78.8838C461.998 78.8838 462.543 78.7988 462.988 78.6289C463.434 78.4531 463.771 78.2041 463.999 77.8818C464.233 77.5537 464.351 77.1611 464.351 76.7041C464.351 76.2646 464.254 75.8984 464.061 75.6055C463.867 75.3066 463.545 75.0371 463.094 74.7969C462.648 74.5508 462.039 74.29 461.266 74.0146C460.721 73.8213 460.24 73.6104 459.824 73.3818C459.408 73.1475 459.06 72.8838 458.778 72.5908C458.497 72.2979 458.283 71.958 458.137 71.5713C457.996 71.1846 457.926 70.7422 457.926 70.2441C457.926 69.5586 458.099 68.9727 458.444 68.4863C458.796 67.9941 459.279 67.6191 459.895 67.3613C460.516 67.0977 461.228 66.9658 462.03 66.9658C462.716 66.9658 463.349 67.0303 463.929 67.1592C464.515 67.2881 465.051 67.4609 465.537 67.6777L465.071 68.9609C464.608 68.7676 464.116 68.6064 463.595 68.4775C463.079 68.3486 462.546 68.2842 461.995 68.2842C461.444 68.2842 460.979 68.3662 460.598 68.5303C460.223 68.6885 459.936 68.9141 459.736 69.207C459.537 69.5 459.438 69.8486 459.438 70.2529C459.438 70.7041 459.531 71.0791 459.719 71.3779C459.912 71.6768 460.217 71.9434 460.633 72.1777C461.055 72.4062 461.611 72.6465 462.303 72.8984C463.059 73.1738 463.7 73.4668 464.228 73.7773C464.755 74.082 465.156 74.457 465.432 74.9023C465.707 75.3418 465.845 75.9014 465.845 76.5811ZM472.419 80H470.916V68.4688H466.873V67.1504H476.444V68.4688H472.419V80ZM417.962 102.452C417.962 103.899 417.698 105.109 417.171 106.082C416.644 107.049 415.879 107.778 414.877 108.271C413.881 108.757 412.671 109 411.247 109H407.758V96.1504H411.634C412.94 96.1504 414.065 96.3906 415.009 96.8711C415.952 97.3457 416.679 98.0518 417.188 98.9893C417.704 99.9209 417.962 101.075 417.962 102.452ZM416.389 102.505C416.389 101.351 416.195 100.398 415.809 99.6484C415.428 98.8984 414.865 98.3418 414.121 97.9785C413.383 97.6094 412.478 97.4248 411.405 97.4248H409.252V107.717H411.071C412.841 107.717 414.168 107.28 415.053 106.407C415.943 105.534 416.389 104.233 416.389 102.505ZM427.973 109H420.818V96.1504H427.973V97.4688H422.312V101.626H427.647V102.927H422.312V107.682H427.973V109ZM434.178 96.1504C435.836 96.1504 437.046 96.4756 437.808 97.126C438.575 97.7705 438.959 98.6963 438.959 99.9033C438.959 100.448 438.868 100.967 438.687 101.459C438.511 101.945 438.224 102.376 437.825 102.751C437.427 103.12 436.902 103.413 436.252 103.63C435.607 103.841 434.816 103.946 433.879 103.946H432.314V109H430.82V96.1504H434.178ZM434.037 97.4248H432.314V102.663H433.712C434.532 102.663 435.215 102.575 435.76 102.399C436.311 102.224 436.724 101.939 436.999 101.547C437.274 101.148 437.412 100.621 437.412 99.9648C437.412 99.1094 437.14 98.4736 436.595 98.0576C436.05 97.6357 435.197 97.4248 434.037 97.4248ZM448.803 109H441.648V96.1504H448.803V97.4688H443.143V101.626H448.478V102.927H443.143V107.682H448.803V109ZM461.696 109H459.974L452.969 98.207H452.898C452.916 98.4941 452.937 98.8223 452.96 99.1914C452.983 99.5547 453.001 99.9443 453.013 100.36C453.03 100.771 453.039 101.189 453.039 101.617V109H451.65V96.1504H453.364L460.343 106.908H460.404C460.393 106.703 460.378 106.413 460.36 106.038C460.343 105.657 460.325 105.25 460.308 104.816C460.296 104.377 460.29 103.97 460.29 103.595V96.1504H461.696V109ZM475.407 102.452C475.407 103.899 475.144 105.109 474.616 106.082C474.089 107.049 473.324 107.778 472.322 108.271C471.326 108.757 470.116 109 468.692 109H465.203V96.1504H469.079C470.386 96.1504 471.511 96.3906 472.454 96.8711C473.397 97.3457 474.124 98.0518 474.634 98.9893C475.149 99.9209 475.407 101.075 475.407 102.452ZM473.834 102.505C473.834 101.351 473.641 100.398 473.254 99.6484C472.873 98.8984 472.311 98.3418 471.566 97.9785C470.828 97.6094 469.923 97.4248 468.851 97.4248H466.697V107.717H468.517C470.286 107.717 471.613 107.28 472.498 106.407C473.389 105.534 473.834 104.233 473.834 102.505ZM486.323 109L484.741 104.922H479.591L478.018 109H476.506L481.533 96.0977H482.878L487.87 109H486.323ZM484.293 103.595L482.79 99.543C482.755 99.4375 482.696 99.2646 482.614 99.0244C482.538 98.7842 482.459 98.5352 482.377 98.2773C482.295 98.0195 482.228 97.8115 482.175 97.6533C482.116 97.8936 482.052 98.1338 481.981 98.374C481.917 98.6084 481.853 98.8281 481.788 99.0332C481.724 99.2324 481.668 99.4023 481.621 99.543L480.092 103.595H484.293ZM489.654 96.1504H493.293C494.898 96.1504 496.105 96.3906 496.914 96.8711C497.723 97.3516 498.127 98.1689 498.127 99.3232C498.127 99.8213 498.03 100.27 497.837 100.668C497.649 101.061 497.374 101.386 497.011 101.644C496.647 101.901 496.199 102.08 495.666 102.18V102.268C496.229 102.355 496.727 102.517 497.16 102.751C497.594 102.985 497.934 103.313 498.18 103.735C498.426 104.157 498.549 104.693 498.549 105.344C498.549 106.135 498.364 106.803 497.995 107.348C497.632 107.893 497.116 108.306 496.448 108.587C495.78 108.862 494.989 109 494.075 109H489.654V96.1504ZM491.148 101.661H493.609C494.729 101.661 495.502 101.477 495.93 101.107C496.363 100.738 496.58 100.199 496.58 99.4902C496.58 98.7578 496.322 98.2305 495.807 97.9082C495.297 97.5859 494.482 97.4248 493.363 97.4248H491.148V101.661ZM491.148 102.918V107.726H493.82C494.963 107.726 495.771 107.503 496.246 107.058C496.721 106.606 496.958 106 496.958 105.238C496.958 104.752 496.85 104.336 496.633 103.99C496.422 103.645 496.076 103.381 495.596 103.199C495.121 103.012 494.485 102.918 493.688 102.918H491.148ZM501.291 109V96.1504H502.785V107.664H508.489V109H501.291ZM517.85 109H510.695V96.1504H517.85V97.4688H512.189V101.626H517.524V102.927H512.189V107.682H517.85V109Z" fill="#6D7D8B"/>
<path d="M744.817 82L743.235 77.9219H738.085L736.512 82H735L740.027 69.0977H741.372L746.364 82H744.817ZM742.787 76.5947L741.284 72.543C741.249 72.4375 741.19 72.2646 741.108 72.0244C741.032 71.7842 740.953 71.5352 740.871 71.2773C740.789 71.0195 740.722 70.8115 740.669 70.6533C740.61 70.8936 740.546 71.1338 740.476 71.374C740.411 71.6084 740.347 71.8281 740.282 72.0332C740.218 72.2324 740.162 72.4023 740.115 72.543L738.586 76.5947H742.787ZM748.148 82V69.1504H749.643V80.6641H755.347V82H748.148ZM772.151 69.1504L768.715 82H767.212L764.663 73.3516C764.587 73.1055 764.514 72.8594 764.443 72.6133C764.379 72.3613 764.317 72.124 764.259 71.9014C764.2 71.6729 764.15 71.4736 764.109 71.3037C764.074 71.1279 764.048 70.9961 764.03 70.9082C764.019 70.9961 763.995 71.125 763.96 71.2949C763.931 71.4648 763.89 71.6611 763.837 71.8838C763.79 72.1064 763.731 72.3438 763.661 72.5957C763.597 72.8477 763.526 73.1025 763.45 73.3604L760.972 82H759.469L756.059 69.1504H757.614L759.68 77.21C759.75 77.4795 759.814 77.7461 759.873 78.0098C759.938 78.2676 759.993 78.5195 760.04 78.7656C760.093 79.0117 760.14 79.252 760.181 79.4863C760.222 79.7207 760.26 79.9492 760.295 80.1719C760.324 79.9434 760.362 79.7061 760.409 79.46C760.456 79.208 760.506 78.9531 760.559 78.6953C760.617 78.4375 760.679 78.1768 760.743 77.9131C760.813 77.6494 760.887 77.3857 760.963 77.1221L763.274 69.1504H764.812L767.221 77.1836C767.303 77.459 767.379 77.7314 767.449 78.001C767.52 78.2705 767.581 78.5342 767.634 78.792C767.692 79.0439 767.742 79.2871 767.783 79.5215C767.83 79.75 767.871 79.9668 767.906 80.1719C767.947 79.8848 767.997 79.583 768.056 79.2666C768.114 78.9502 768.182 78.6191 768.258 78.2734C768.34 77.9277 768.428 77.5703 768.521 77.2012L770.587 69.1504H772.151ZM782.241 82L780.659 77.9219H775.509L773.936 82H772.424L777.451 69.0977H778.796L783.788 82H782.241ZM780.211 76.5947L778.708 72.543C778.673 72.4375 778.614 72.2646 778.532 72.0244C778.456 71.7842 778.377 71.5352 778.295 71.2773C778.213 71.0195 778.146 70.8115 778.093 70.6533C778.034 70.8936 777.97 71.1338 777.899 71.374C777.835 71.6084 777.771 71.8281 777.706 72.0332C777.642 72.2324 777.586 72.4023 777.539 72.543L776.01 76.5947H780.211ZM788.851 75.5928L792.27 69.1504H793.878L789.598 77.0166V82H788.104V77.0869L783.814 69.1504H785.449L788.851 75.5928ZM802.896 78.5811C802.896 79.3428 802.705 79.9932 802.324 80.5322C801.949 81.0654 801.422 81.4727 800.742 81.7539C800.062 82.0352 799.263 82.1758 798.343 82.1758C797.856 82.1758 797.396 82.1523 796.963 82.1055C796.529 82.0586 796.131 81.9912 795.768 81.9033C795.404 81.8154 795.085 81.707 794.81 81.5781V80.1455C795.249 80.3271 795.785 80.4971 796.418 80.6553C797.051 80.8076 797.713 80.8838 798.404 80.8838C799.049 80.8838 799.594 80.7988 800.039 80.6289C800.484 80.4531 800.821 80.2041 801.05 79.8818C801.284 79.5537 801.401 79.1611 801.401 78.7041C801.401 78.2646 801.305 77.8984 801.111 77.6055C800.918 77.3066 800.596 77.0371 800.145 76.7969C799.699 76.5508 799.09 76.29 798.316 76.0146C797.771 75.8213 797.291 75.6104 796.875 75.3818C796.459 75.1475 796.11 74.8838 795.829 74.5908C795.548 74.2979 795.334 73.958 795.188 73.5713C795.047 73.1846 794.977 72.7422 794.977 72.2441C794.977 71.5586 795.149 70.9727 795.495 70.4863C795.847 69.9941 796.33 69.6191 796.945 69.3613C797.566 69.0977 798.278 68.9658 799.081 68.9658C799.767 68.9658 800.399 69.0303 800.979 69.1592C801.565 69.2881 802.102 69.4609 802.588 69.6777L802.122 70.9609C801.659 70.7676 801.167 70.6064 800.646 70.4775C800.13 70.3486 799.597 70.2842 799.046 70.2842C798.495 70.2842 798.029 70.3662 797.648 70.5303C797.273 70.6885 796.986 70.9141 796.787 71.207C796.588 71.5 796.488 71.8486 796.488 72.2529C796.488 72.7041 796.582 73.0791 796.77 73.3779C796.963 73.6768 797.268 73.9434 797.684 74.1777C798.105 74.4062 798.662 74.6465 799.354 74.8984C800.109 75.1738 800.751 75.4668 801.278 75.7773C801.806 76.082 802.207 76.457 802.482 76.9023C802.758 77.3418 802.896 77.9014 802.896 78.5811ZM736.758 111V98.1504H738.252V111H736.758ZM747.437 111L743.121 99.627H743.051C743.074 99.8672 743.095 100.16 743.112 100.506C743.13 100.852 743.145 101.229 743.156 101.64C743.168 102.044 743.174 102.457 743.174 102.879V111H741.785V98.1504H744L748.069 108.838H748.131L752.262 98.1504H754.459V111H752.982V102.773C752.982 102.393 752.988 102.012 753 101.631C753.012 101.244 753.026 100.881 753.044 100.541C753.062 100.195 753.079 99.8965 753.097 99.6445H753.026L748.658 111H747.437ZM761.332 98.1504C762.99 98.1504 764.2 98.4756 764.962 99.126C765.729 99.7705 766.113 100.696 766.113 101.903C766.113 102.448 766.022 102.967 765.841 103.459C765.665 103.945 765.378 104.376 764.979 104.751C764.581 105.12 764.057 105.413 763.406 105.63C762.762 105.841 761.971 105.946 761.033 105.946H759.469V111H757.975V98.1504H761.332ZM761.191 99.4248H759.469V104.663H760.866C761.687 104.663 762.369 104.575 762.914 104.399C763.465 104.224 763.878 103.939 764.153 103.547C764.429 103.148 764.566 102.621 764.566 101.965C764.566 101.109 764.294 100.474 763.749 100.058C763.204 99.6357 762.352 99.4248 761.191 99.4248ZM772.274 98.1504C773.329 98.1504 774.199 98.2822 774.885 98.5459C775.576 98.8037 776.092 99.1992 776.432 99.7324C776.771 100.266 776.941 100.945 776.941 101.771C776.941 102.451 776.818 103.02 776.572 103.477C776.326 103.928 776.004 104.294 775.605 104.575C775.207 104.856 774.782 105.073 774.331 105.226L777.855 111H776.115L772.969 105.639H770.297V111H768.803V98.1504H772.274ZM772.187 99.4424H770.297V104.373H772.336C773.385 104.373 774.155 104.159 774.647 103.731C775.146 103.304 775.395 102.674 775.395 101.842C775.395 100.969 775.131 100.351 774.604 99.9873C774.082 99.624 773.276 99.4424 772.187 99.4424ZM791.057 104.558C791.057 105.548 790.931 106.45 790.679 107.265C790.427 108.073 790.052 108.771 789.554 109.356C789.062 109.937 788.449 110.385 787.717 110.701C786.984 111.018 786.135 111.176 785.168 111.176C784.172 111.176 783.302 111.018 782.558 110.701C781.819 110.385 781.204 109.934 780.712 109.348C780.226 108.762 779.859 108.062 779.613 107.247C779.373 106.433 779.253 105.53 779.253 104.54C779.253 103.228 779.47 102.076 779.903 101.086C780.337 100.096 780.993 99.3252 781.872 98.7744C782.757 98.2236 783.864 97.9482 785.194 97.9482C786.466 97.9482 787.535 98.2207 788.402 98.7656C789.275 99.3105 789.935 100.078 790.38 101.068C790.831 102.053 791.057 103.216 791.057 104.558ZM780.826 104.558C780.826 105.647 780.981 106.591 781.292 107.388C781.603 108.185 782.077 108.8 782.716 109.233C783.36 109.667 784.178 109.884 785.168 109.884C786.164 109.884 786.979 109.667 787.611 109.233C788.25 108.8 788.722 108.185 789.026 107.388C789.331 106.591 789.483 105.647 789.483 104.558C789.483 102.899 789.135 101.604 788.438 100.673C787.746 99.7354 786.665 99.2666 785.194 99.2666C784.198 99.2666 783.378 99.4805 782.733 99.9082C782.089 100.336 781.608 100.945 781.292 101.736C780.981 102.521 780.826 103.462 780.826 104.558ZM802.896 98.1504L798.281 111H796.778L792.164 98.1504H793.729L796.734 106.614C796.857 106.954 796.966 107.279 797.06 107.59C797.159 107.9 797.247 108.199 797.323 108.486C797.399 108.773 797.467 109.052 797.525 109.321C797.584 109.052 797.651 108.773 797.728 108.486C797.804 108.193 797.892 107.892 797.991 107.581C798.091 107.265 798.202 106.934 798.325 106.588L801.313 98.1504H802.896ZM804.662 111V98.1504H806.156V111H804.662ZM819.735 111H818.013L811.008 100.207H810.938C810.955 100.494 810.976 100.822 810.999 101.191C811.022 101.555 811.04 101.944 811.052 102.36C811.069 102.771 811.078 103.189 811.078 103.617V111H809.689V98.1504H811.403L818.382 108.908H818.443C818.432 108.703 818.417 108.413 818.399 108.038C818.382 107.657 818.364 107.25 818.347 106.816C818.335 106.377 818.329 105.97 818.329 105.595V98.1504H819.735V111ZM828.735 104.268H833.227V110.499C832.553 110.728 831.858 110.897 831.144 111.009C830.435 111.12 829.641 111.176 828.762 111.176C827.426 111.176 826.298 110.909 825.378 110.376C824.464 109.843 823.77 109.084 823.295 108.1C822.82 107.109 822.583 105.935 822.583 104.575C822.583 103.245 822.844 102.085 823.365 101.095C823.893 100.104 824.651 99.3369 825.642 98.792C826.638 98.2412 827.833 97.9658 829.228 97.9658C829.942 97.9658 830.619 98.0332 831.258 98.168C831.902 98.2969 832.5 98.4814 833.051 98.7217L832.479 100.022C832.005 99.8174 831.48 99.6416 830.906 99.4951C830.338 99.3486 829.749 99.2754 829.14 99.2754C828.091 99.2754 827.191 99.4922 826.441 99.9258C825.697 100.359 825.126 100.972 824.728 101.763C824.335 102.554 824.139 103.491 824.139 104.575C824.139 105.647 824.312 106.582 824.657 107.379C825.003 108.17 825.542 108.785 826.274 109.225C827.007 109.664 827.95 109.884 829.104 109.884C829.685 109.884 830.183 109.852 830.599 109.787C831.015 109.717 831.393 109.635 831.732 109.541V105.604H828.735V104.268Z" fill="#6D7D8B"/>
</svg>
