<svg width="75" height="71" viewBox="0 0 75 71" fill="none" xmlns="http://www.w3.org/2000/svg">
<path d="M57.8023 6.81733C57.3223 6.20945 56.5723 5.84473 55.7623 5.84473H30.9023C29.8223 5.84473 28.8723 6.49001 28.5323 7.4439L24.3723 19.1338C23.9323 20.3495 24.6323 21.6775 25.9323 22.089C26.1923 22.1732 26.4723 22.2106 26.7423 22.2106H51.6023C52.6823 22.2106 53.6323 21.5653 53.9723 20.6114L58.1323 8.92151C58.3923 8.21076 58.2623 7.4252 57.8023 6.81733ZM51.6023 19.8726H26.7423L30.9023 8.1827H55.7623L51.6023 19.8726Z" fill="#553D67"/>
<path d="M68.8322 4.61977L58.6722 33.1429C58.4522 33.7602 57.7422 34.0875 57.0822 33.8817C56.4222 33.676 56.0722 33.012 56.2922 32.3948L66.4622 3.88097C66.6022 3.5256 66.5422 3.13282 66.3022 2.83356C66.0722 2.52495 65.6922 2.33791 65.2922 2.34726H23.0522C22.5122 2.34726 22.0322 2.66523 21.8622 3.14217L3.5422 54.5774C3.4022 54.9328 3.4622 55.3256 3.7022 55.6248C3.9322 55.9241 4.3122 56.1111 4.7122 56.1111H47.5022C48.1922 56.1111 48.7522 56.6348 48.7522 57.2801C48.7522 57.9254 48.1922 58.4491 47.5022 58.4491H5.8122C3.9222 58.6548 2.5022 60.1511 2.5022 61.928V64.2846C2.5122 66.2205 4.1822 67.7822 6.2522 67.7916H54.1022L55.0522 65.1076C55.2722 64.4904 55.9822 64.1631 56.6422 64.3688C57.3022 64.5746 57.6522 65.2385 57.4322 65.8558L56.1922 69.3347C56.0122 69.8116 55.5322 70.1296 55.0022 70.1389H6.2522C2.8022 70.1389 0.00219727 67.5204 0.00219727 64.294V61.9373C0.00219727 60.2353 0.802197 58.6174 2.1922 57.5233C2.0022 57.3549 1.8322 57.1772 1.6722 56.9902C0.962197 56.0831 0.772197 54.9047 1.1622 53.8386L19.5022 2.40337C20.0022 0.963187 21.4422 -0.00940708 23.0522 -5.52156e-05H65.2922C67.3622 -5.52156e-05 69.0422 1.58041 69.0322 3.51625C69.0322 3.89032 68.9622 4.26439 68.8322 4.61977Z" fill="#553D67"/>
<path d="M74.1423 15.253C73.4923 15.0473 72.7823 15.384 72.5623 15.9918L65.0623 37.0335C64.8423 37.6508 65.2023 38.3054 65.8523 38.5111C66.5123 38.7169 67.2123 38.3802 67.4323 37.7723L74.9323 16.7306C75.1523 16.1228 74.8023 15.4588 74.1423 15.253Z" fill="#553D67"/>
<path d="M71.9123 45.7683L41.9123 28.2335C41.4523 27.9623 40.8623 27.9997 40.4523 28.327C40.0323 28.6543 39.8823 29.1967 40.0923 29.6737L53.8423 61.2363C54.0423 61.6759 54.4923 61.9564 55.0023 61.9564C55.0423 61.9564 55.0823 61.9564 55.1223 61.9471C55.6723 61.9003 56.1323 61.5169 56.2223 61.0025L58.5623 49.0227L71.3623 47.9379C72.0523 47.8725 72.5623 47.302 72.4923 46.6474C72.4523 46.2826 72.2423 45.9553 71.9123 45.7683ZM57.3923 46.7596C56.8323 46.8063 56.3823 47.1991 56.2823 47.7135L54.5423 56.6165L43.8623 32.1332L67.4323 45.8992L57.3923 46.7596Z" fill="#553D67"/>
</svg>
