<svg width="103" height="75" viewBox="0 0 103 75" fill="none" xmlns="http://www.w3.org/2000/svg">
<path d="M83.2411 40.9094L75.0556 49.1181C74.9536 48.9902 74.8389 48.8623 74.7114 48.7345L64.1289 38.122C63.5424 37.5338 62.5989 37.5338 62.0124 38.122C61.4259 38.7101 61.4259 39.6563 62.0124 40.2445L72.5949 50.857C73.5001 51.7648 73.5001 53.248 72.5949 54.1686C71.6896 55.0764 70.2106 55.0764 69.2926 54.1686L63.4149 48.2742C62.8284 47.686 61.8849 47.686 61.2984 48.2742C60.7119 48.8623 60.7119 49.8085 61.2984 50.3967L67.1761 56.2911C67.6224 56.7386 67.8646 57.314 67.8646 57.9405C67.8646 58.567 67.6224 59.1552 67.1761 59.5899C66.7299 60.0374 66.1561 60.2804 65.5314 60.2804C64.9066 60.2804 64.3201 60.0374 63.8866 59.5899L58.0089 53.7083C57.4224 53.1201 56.4789 53.1201 55.8924 53.7083C55.3059 54.2965 55.3059 55.2426 55.8924 55.8308L61.7701 61.7252C62.6754 62.633 62.6754 64.1162 61.7701 65.0368C61.3239 65.4843 60.7501 65.7273 60.1254 65.7273C59.5006 65.7273 58.9141 65.4843 58.4806 65.0368L52.6029 59.1424C52.0164 58.5542 51.0729 58.5542 50.4864 59.1424C49.8999 59.7306 49.8999 60.6767 50.4864 61.2649L56.3641 67.1593C57.2694 68.0671 57.2694 69.5503 56.3641 70.4709C55.9179 70.9185 55.3441 71.1614 54.7194 71.1614C54.0946 71.1614 53.5081 70.9185 53.0746 70.4709L49.2624 66.6479C50.4736 64.6149 50.2186 61.9426 48.4719 60.2037L48.3699 60.1014C47.2096 58.9378 45.6414 58.4392 44.1241 58.5798C44.0349 57.3012 43.4994 56.1249 42.5941 55.2043C41.8929 54.501 41.0386 54.0407 40.1334 53.8106C40.3629 53.2096 40.4904 52.5703 40.4904 51.9054C40.4904 50.499 39.9421 49.1692 38.9476 48.1719C37.9531 47.1746 36.6271 46.6248 35.2246 46.6248C34.4214 46.6248 33.6564 46.8038 32.9551 47.1362C32.7129 46.2923 32.2794 45.4996 31.6164 44.8475C29.5636 42.7889 26.2231 42.7889 24.1704 44.8475L23.5584 45.4612L23.1121 45.0137C22.3854 44.2849 21.9901 43.3259 21.9901 42.2903V38.3777C21.9901 37.9813 21.8371 37.5977 21.5566 37.3164L15.1689 30.9106L16.9666 29.1077C17.5531 28.5196 17.5531 27.5734 16.9666 26.9852C16.3801 26.3971 15.4366 26.3971 14.8501 26.9852L12.4404 29.4018C11.9814 29.8621 11.2419 29.8621 10.7956 29.4018L3.05637 21.7046C2.46987 21.1164 1.52637 21.1164 0.939875 21.7046C0.353375 22.2927 0.353375 23.2389 0.939875 23.8271L8.64087 31.5499C9.45687 32.3682 10.5151 32.7646 11.5861 32.7646C11.9304 32.7646 12.2619 32.7134 12.5934 32.6367L18.9684 39.0298V42.3286C18.9684 44.157 19.6824 45.8704 20.9701 47.1746L21.4164 47.6221L20.9191 48.1207C19.9246 49.1181 19.3764 50.4478 19.3764 51.8543C19.3764 53.2608 19.9246 54.5905 20.9191 55.5879C21.9391 56.6108 23.2906 57.135 24.6421 57.135C24.6676 57.135 24.6804 57.135 24.7059 57.135C24.7059 57.1606 24.7059 57.1733 24.7059 57.1989C24.7059 58.6054 25.2541 59.9352 26.2486 60.9325C27.2431 61.9298 28.5691 62.4796 29.9716 62.4796C29.9971 62.4796 30.0099 62.4796 30.0354 62.4796C30.0226 63.8477 30.5326 65.2286 31.5781 66.2771C32.5981 67.3 33.9496 67.8242 35.3011 67.8242C35.3266 67.8242 35.3394 67.8242 35.3649 67.8242C35.3521 69.1923 35.8621 70.5732 36.9076 71.6217L36.9969 71.7112C37.9914 72.7085 39.3174 73.2583 40.7199 73.2583C42.1224 73.2583 43.4484 72.7085 44.4429 71.7112L47.2479 68.8982L50.9454 72.6062C51.9526 73.6163 53.2914 74.1661 54.7066 74.1661C56.1346 74.1661 57.4606 73.6163 58.4679 72.6062C59.5261 71.545 60.0489 70.1385 60.0234 68.732C60.0489 68.732 60.0871 68.732 60.1126 68.732C61.5406 68.732 62.8666 68.1822 63.8739 67.1721C64.9321 66.1109 65.4549 64.7044 65.4294 63.2979C65.4549 63.2979 65.4931 63.2979 65.5186 63.2979C66.8829 63.2979 68.2471 62.7737 69.2799 61.738C70.2871 60.7279 70.8354 59.3853 70.8354 57.9661C70.8354 57.9405 70.8354 57.9021 70.8354 57.8766C70.8609 57.8766 70.8991 57.8766 70.9246 57.8766C72.2889 57.8766 73.6531 57.3523 74.6859 56.3167C75.8206 55.1787 76.3306 53.6699 76.2286 52.1867L85.3321 43.0574C85.9186 42.4693 85.9186 41.5231 85.3321 40.9349C84.7711 40.3212 83.8276 40.3212 83.2411 40.9094ZM23.0484 53.4654C22.6149 53.0306 22.3854 52.468 22.3854 51.8543C22.3854 51.2406 22.6276 50.678 23.0484 50.2432L26.2869 46.9956C26.7331 46.548 27.3069 46.3307 27.8934 46.3307C28.4799 46.3307 29.0536 46.548 29.4999 46.9956C30.3796 47.8778 30.3796 49.3226 29.4999 50.2177L26.2614 53.4654C25.3689 54.3476 23.9281 54.3476 23.0484 53.4654ZM29.9716 59.4621C29.3596 59.4621 28.7986 59.2191 28.3651 58.7972C27.9316 58.3625 27.7021 57.7999 27.7021 57.1861C27.7021 56.5724 27.9444 56.0098 28.3651 55.5751L31.6036 52.3274L33.6181 50.3072C34.0516 49.8724 34.6126 49.6423 35.2246 49.6423C35.8366 49.6423 36.3976 49.8852 36.8311 50.3072C37.2646 50.7419 37.4941 51.3045 37.4941 51.9182C37.4941 52.532 37.2519 53.0946 36.8311 53.5293L31.5781 58.7972C31.1446 59.2319 30.5709 59.4621 29.9716 59.4621ZM33.6946 64.1418C32.8149 63.2595 32.8149 61.8147 33.6946 60.9197L37.2646 57.3396C37.7109 56.892 38.2846 56.6747 38.8711 56.6747C39.4576 56.6747 40.0314 56.892 40.4776 57.3396C40.9111 57.7743 41.1406 58.3369 41.1406 58.9506C41.1406 59.5516 40.9111 60.1269 40.4776 60.5617L36.9076 64.1418C36.0151 65.024 34.5744 65.024 33.6946 64.1418ZM42.3136 69.5759C41.8801 70.0106 41.3191 70.2408 40.7071 70.2408C40.0951 70.2408 39.5341 69.9979 39.1006 69.5759L39.0114 69.4864C38.1316 68.6042 38.1316 67.1593 39.0114 66.2643L42.5814 62.6842L43.0276 62.2367C43.4739 61.7891 44.0476 61.5718 44.6341 61.5718C45.2206 61.5718 45.7944 61.7891 46.2406 62.2367L46.3299 62.3262C47.2096 63.2084 47.2096 64.6532 46.3299 65.5483L42.3136 69.5759Z" fill="#553D67"/>
<path d="M102.073 28.0336C101.486 27.4454 100.543 27.4454 99.9563 28.0336L94.3463 33.6595C94.2698 33.7362 94.1423 33.7362 94.0658 33.6595L74.2268 14.6592C74.1886 14.6209 74.1631 14.5697 74.1631 14.5186C74.1631 14.4675 74.1886 14.4163 74.2268 14.3779L85.9823 2.56351C86.5688 1.97534 86.5688 1.02917 85.9823 0.441001C85.3958 -0.147163 84.4523 -0.147163 83.8658 0.441001L72.0976 12.2427C71.4856 12.8564 71.1541 13.6747 71.1668 14.5442C71.1796 15.2474 71.4091 15.9123 71.8298 16.4493L66.4493 21.7428L61.3748 18.9043C60.7118 18.5335 59.9596 18.3417 59.2073 18.3417H44.7998L43.7033 17.2421C42.6833 16.2192 41.4848 15.4392 40.1333 14.9278L36.1426 13.4062L34.2938 11.5522C35.2501 9.95393 35.0461 7.84421 33.6691 6.4633L27.6638 0.441001C27.0773 -0.147163 26.1338 -0.147163 25.5473 0.441001C24.9608 1.02917 24.9608 1.97534 25.5473 2.56351L31.5526 8.5858C32.0116 9.04611 32.0116 9.78771 31.5526 10.2352L19.3381 22.4844C18.7516 23.0726 18.7516 24.0187 19.3381 24.6069C19.6313 24.901 20.0138 25.0416 20.3963 25.0416C20.7788 25.0416 21.1613 24.901 21.4546 24.6069L32.2666 13.7642L34.2428 15.7461C34.3958 15.8995 34.5743 16.0146 34.7656 16.0913L39.0496 17.7279C39.9803 18.0859 40.7963 18.6102 41.5103 19.3134C41.4211 19.3901 41.3318 19.4669 41.2426 19.5564L35.5433 25.2718C34.4086 26.4098 33.7966 27.9057 33.7966 29.5168C33.7966 31.1279 34.4213 32.6238 35.5433 33.7618C36.7163 34.9381 38.2336 35.5263 39.7763 35.5263C41.1151 35.5263 42.4666 35.0788 43.5758 34.1582L47.8853 30.6036H52.3733L57.4988 35.7437C57.7921 36.0378 58.1746 36.1784 58.5571 36.1784C58.9396 36.1784 59.3221 36.0378 59.6153 35.7437C60.2018 35.1555 60.2018 34.2093 59.6153 33.6212L55.9051 29.9004C56.0581 29.6702 56.1346 29.3889 56.1346 29.0949C56.1346 28.2637 55.4588 27.5989 54.6428 27.5989H47.3371C46.9928 27.5989 46.6486 27.7139 46.3808 27.9441L41.6633 31.8439C40.4648 32.8284 38.7436 32.7389 37.6471 31.6521C37.0861 31.0895 36.7673 30.3351 36.7673 29.5296C36.7673 28.7241 37.0733 27.9825 37.6471 27.4071L43.3463 21.6916C43.5631 21.4743 43.8436 21.3592 44.1496 21.3592H59.1818C59.4368 21.3592 59.6791 21.4231 59.8958 21.551L65.5058 24.6836C66.3346 25.1439 67.3928 25.0033 68.0813 24.3384L73.9463 18.5718L90.0878 34.0431L87.7418 36.3958C87.1553 36.9839 87.1553 37.9301 87.7418 38.5183C88.0351 38.8124 88.4176 38.953 88.8001 38.953C89.1826 38.953 89.5651 38.8124 89.8583 38.5183L92.2808 36.0889C92.8418 36.5108 93.5176 36.7154 94.1806 36.7154C94.9966 36.7154 95.8253 36.4086 96.4373 35.782L102.047 30.1561C102.647 29.5679 102.647 28.609 102.073 28.0336Z" fill="#553D67"/>
</svg>
