<svg width="75" height="76" viewBox="0 0 75 76" fill="none" xmlns="http://www.w3.org/2000/svg">
<path d="M37.5 0C16.7862 0 0 16.8195 0 37.5745C0 58.3295 16.7862 75.149 37.5 75.149C58.2138 75.149 75 58.3295 75 37.5745C74.9803 16.8294 58.2039 0.0197761 37.5 0ZM37.5 72.6474C18.1678 72.6474 2.49671 56.9452 2.49671 37.5745C2.49671 18.2039 18.1678 2.50167 37.5 2.50167C56.8322 2.50167 72.5033 18.2039 72.5033 37.5745C72.4737 56.9353 56.8224 72.6177 37.5 72.6474Z" fill="#553D67"/>
<path d="M37.4999 6.25916C20.24 6.25916 6.24658 20.2804 6.24658 37.5745C6.24658 54.8687 20.24 68.8899 37.4999 68.8899C54.7598 68.8899 68.7532 54.8687 68.7532 37.5745C68.7334 20.2903 54.7499 6.27893 37.4999 6.25916ZM37.4999 66.3783C21.6216 66.3783 8.75316 53.4844 8.75316 37.5745C8.75316 21.6647 21.6216 8.77071 37.4999 8.77071C53.3782 8.77071 66.2466 21.6647 66.2466 37.5745C66.2367 53.4745 53.3683 66.3684 37.4999 66.3783Z" fill="#553D67"/>
<path d="M38.7433 12.5282H36.2466V15.0298H38.7433V12.5282Z" fill="#553D67"/>
<path d="M38.7433 60.1191H36.2466V62.6208H38.7433V60.1191Z" fill="#553D67"/>
<path d="M26.0791 15.2557L23.917 16.5068L25.1656 18.6733L27.3278 17.4222L26.0791 15.2557Z" fill="#553D67"/>
<path d="M49.8243 56.4718L47.6621 57.7229L48.9107 59.8894L51.0729 58.6383L49.8243 56.4718Z" fill="#553D67"/>
<path d="M16.471 23.9677L15.2227 26.1342L17.3848 27.385L18.6332 25.2186L16.471 23.9677Z" fill="#553D67"/>
<path d="M57.6011 47.7695L56.3528 49.936L58.5149 51.1869L59.7633 49.0204L57.6011 47.7695Z" fill="#553D67"/>
<path d="M15.0001 36.3187H12.5034V38.8204H15.0001V36.3187Z" fill="#553D67"/>
<path d="M62.4967 36.3187H60V38.8204H62.4967V36.3187Z" fill="#553D67"/>
<path d="M17.387 47.7678L15.2246 49.0183L16.4727 51.1849L18.6351 49.9344L17.387 47.7678Z" fill="#553D67"/>
<path d="M58.5157 23.9667L56.3535 25.2175L57.6019 27.3839L59.764 26.1331L58.5157 23.9667Z" fill="#553D67"/>
<path d="M25.1563 56.4688L23.9077 58.6353L26.0699 59.8863L27.3185 57.7199L25.1563 56.4688Z" fill="#553D67"/>
<path d="M48.9075 15.259L47.6589 17.4254L49.8211 18.6765L51.0697 16.5101L48.9075 15.259Z" fill="#553D67"/>
<path d="M36.2467 17.5315V36.8625L24.3552 44.0115L25.6381 46.1572L38.1414 38.6424C38.5164 38.4149 38.7434 38.0095 38.7434 37.5646V17.5315H36.2467Z" fill="#553D67"/>
</svg>
